Coordinates
version=1
nRows=9
nColumns=63
inDegrees=yes

Units are S.I. units (second, meters, Newtons, ...)
If the header above contains a line with 'inDegrees', this indicates whether rotational values are in degrees (yes) or radians (no).

endheader
time	pelvis_tilt	pelvis_list	pelvis_rotation	pelvis_tx	pelvis_ty	pelvis_tz	hip_flexion_r	hip_adduction_r	hip_rotation_r	knee_angle_r	knee_angle_r_beta	ankle_angle_r	subtalar_angle_r	mtp_angle_r	hip_flexion_l	hip_adduction_l	hip_rotation_l	knee_angle_l	knee_angle_l_beta	ankle_angle_l	subtalar_angle_l	mtp_angle_l	L5_S1_Flex_Ext	L5_S1_Lat_Bending	L5_S1_axial_rotation	L4_L5_Flex_Ext	L4_L5_Lat_Bending	L4_L5_axial_rotation	L3_L4_Flex_Ext	L3_L4_Lat_Bending	L3_L4_axial_rotation	L2_L3_Flex_Ext	L2_L3_Lat_Bending	L2_L3_axial_rotation	L1_L2_Flex_Ext	L1_L2_Lat_Bending	L1_L2_axial_rotation	L1_T12_Flex_Ext	L1_T12_Lat_Bending	L1_T12_axial_rotation	Abs_r3	Abs_r2	Abs_r1	Abs_t1	Abs_t2	neck_flexion	neck_bending	neck_rotation	arm_flex_r	arm_add_r	arm_rot_r	elbow_flex_r	pro_sup_r	wrist_flex_r	wrist_dev_r	arm_flex_l	arm_add_l	arm_rot_l	elbow_flex_l	pro_sup_l	wrist_flex_l	wrist_dev_l
      0.00000000	     -0.66333559	     -5.01759329	     85.02326630	      0.19385899	      0.88871014	      0.65290703	      2.90189019	     -2.04293573	      0.46950328	      9.08744029	      0.15860575	     29.95491568	     12.91832411	      0.00000000	      4.37812871	      1.22836648	      1.63580876	     14.40700082	      0.25144960	     26.19568389	     -8.60497478	      0.00000000	      0.07010127	      0.17477899	      0.79708439	      0.13018507	      0.23245605	      0.84690216	      0.11516938	      0.42495763	      0.84690216	      0.08011874	      0.42495763	      0.69744884	      0.06509604	      0.35640931	      0.64763106	      0.04005587	      0.27073265	      0.59781329	      0.50072636	      1.97713487	      4.43314423	      0.00000000	      0.00000000	     22.80918912	     -0.52418583	     -3.12874420	     27.27832843	     -9.50117093	     75.94857650	     43.78614581	     87.78611560	      8.60154389	      5.82231713	     31.75552088	     -0.38660485	     81.14584389	     35.07106046	     88.80264846	      7.75039510	     16.16985650
      0.01666667	     -1.23746159	     -5.07544972	     84.93654580	      0.19439361	      0.88828229	      0.65331590	      2.51838731	     -2.67818222	      0.38827389	      8.53277727	      0.14892506	     29.11729090	     12.78614633	      0.00000000	      4.47105455	      1.83515665	      1.60467544	     14.27668231	      0.24917511	     26.12396429	     -8.93501920	      0.00000000	      0.07540059	      0.09886152	      0.81159068	      0.14002644	      0.13148582	      0.86231510	      0.12387564	      0.24037190	      0.86231510	      0.08617534	      0.24037190	      0.71014185	      0.07001699	      0.20159841	      0.65941743	      0.04308390	      0.15313650	      0.60869301	      0.53857891	      1.11834130	      4.51382389	      0.00000000	      0.00000000	     23.05285083	     -0.31858416	     -3.31631941	     26.94728035	     -9.07170944	     74.90483308	     43.25820743	     86.37908685	      9.17285974	      6.42812983	     31.45580750	     -0.42251086	     79.72769120	     34.77981181	     88.41939594	      7.15596463	     16.42673305
      0.03333333	     -1.57571669	     -5.24686316	     84.87386932	      0.19544037	      0.88762245	      0.65280724	      2.34493912	     -2.91529837	      1.38560837	      8.12561469	      0.14181873	     28.49532526	     11.24314876	      0.00000000	      4.43251954	      2.30155851	      3.06139330	     13.80991167	      0.24102843	     25.50333576	    -11.14444328	      0.00000000	      0.10215121	      0.04034820	      0.86625268	      0.18970501	      0.05366311	      0.92039348	      0.16782422	      0.09810262	      0.92039348	      0.11674862	      0.09810262	      0.75797110	      0.09485761	      0.08227805	      0.70383031	      0.05836920	      0.06249937	      0.64968951	      0.72965587	      0.45642694	      4.81783755	      0.00000000	      0.00000000	     23.29380191	     -0.16894324	     -4.14353368	     24.11369893	     -9.13024009	     72.68435301	     46.71845225	      2.55897531	    -10.01126822	     22.96870888	     30.61603098	     -0.84755155	     76.52021157	     35.76299309	     88.42361480	      7.97624509	     18.89938027
      0.05000000	     -1.70021853	     -5.27407244	     84.84610762	      0.19559248	      0.88733905	      0.65307024	      2.14662739	     -3.06222246	      1.18609822	      7.75245603	      0.13530588	     28.27168215	     11.51785256	      0.00000000	      4.45733574	      2.45881696	      3.28921572	     13.76855350	      0.24030659	     25.41028833	    -11.63656407	      0.00000000	      0.10210021	      0.02291785	      0.87371266	      0.18961030	      0.03048074	      0.92831970	      0.16774044	      0.05572245	      0.92831970	      0.11669033	      0.05572245	      0.76449857	      0.09481026	      0.04673407	      0.70989153	      0.05834006	      0.03549974	      0.65528449	      0.72929159	      0.25925126	      4.85932768	      0.00000000	      0.00000000	     23.37572331	     -0.10793734	     -4.19881426	     24.11442900	     -9.07937147	     72.53249833	     46.65287212	      2.40637387	    -10.10134667	     23.14612006	     30.59607023	     -0.93480741	     76.19862875	     35.83669971	     88.36840365	      8.18051402	     19.15558997
      0.06666667	     -1.73765950	     -5.28515443	     84.75671562	      0.19579025	      0.88716520	      0.65329635	      1.97584649	     -3.06222754	      1.79115661	      7.34331936	      0.12816510	     28.12150021	     10.95274155	      0.00000000	      4.46313823	      2.50210272	      3.34563344	     13.76820315	      0.24030048	     25.35977758	    -11.89273039	      0.00000000	      0.10105337	      0.01627333	      0.90850138	      0.18766622	      0.02164353	      0.96528271	      0.16602058	      0.03956698	      0.96528271	      0.11549390	      0.03956698	      0.79493870	      0.09383816	      0.03318458	      0.73815737	      0.05774190	      0.02520739	      0.68137603	      0.72181412	      0.18408721	      5.05281211	      0.00000000	      0.00000000	     23.42367183	     -0.12127914	     -4.38203359	     24.01810528	     -9.12561029	     72.21001459	     46.71368076	      2.35219969	    -10.24664031	     23.18628216	     30.77878507	     -0.94689101	     76.68400307	     35.78778699	     88.43131060	      8.51478629	     18.98876194
      0.08333333	     -1.67284060	     -5.27728495	     84.70415763	      0.19575349	      0.88707754	      0.65347115	      1.85799694	     -2.98667570	      1.98938181	      7.03076726	      0.12271004	     28.17591384	     10.99369243	      0.00000000	      4.45067240	      2.45158221	      3.46815223	     13.80129211	      0.24087799	     25.32066876	    -12.15419180	      0.00000000	      0.09849971	      0.02460607	      0.94126620	      0.18292381	      0.03272607	      1.00009534	      0.16182517	      0.05982719	      1.00009534	      0.11257532	      0.05982719	      0.82360793	      0.09146683	      0.05017669	      0.76477879	      0.05628273	      0.03811480	      0.70594965	      0.70357358	      0.27834875	      5.23504024	      0.00000000	      0.00000000	     23.41430464	     -0.21569879	     -4.52393869	     24.03135759	     -9.30126842	     72.26783355	     46.86589564	      2.36699993	    -10.22688727	     22.92550423	     31.19281055	     -0.86635891	     78.11985658	     35.61473373	     88.52228444	      8.68276331	     18.40689738
      0.10000000	     -1.59927443	     -5.24364236	     84.57185907	      0.19588046	      0.88708862	      0.65380151	      1.80482787	     -2.91386783	      1.96808106	      6.84112410	      0.11940014	     28.32192560	     11.42112022	      0.00000000	      4.46761752	      2.29149894	      2.78638332	     13.93421021	      0.24319785	     25.61322253	    -11.25602739	      0.00000000	      0.09022141	      0.03605084	      0.98323864	      0.16755019	      0.04794762	      1.04469106	      0.14822476	      0.08765401	      1.04469106	      0.10311405	      0.08765401	      0.86033381	      0.08377961	      0.07351487	      0.79888140	      0.05155252	      0.05584275	      0.73742898	      0.64444254	      0.40781432	      5.46847835	      0.00000000	      0.00000000	     23.38009588	     -0.35563857	     -4.49083322	     24.23350728	     -9.39483630	     72.68123662	     46.71044908	      2.54695027	     -9.38060270	     23.06849407	     31.71144722	     -0.74295985	     79.82942675	     35.37619556	     88.63654685	      9.07925991	     17.79964024
      0.11666667	     -1.48145994	     -5.21565930	     84.71550769	      0.19549500	      0.88711037	      0.65380467	      1.71945382	     -2.80911975	      1.72442048	      6.71040991	      0.11711875	     28.43163415	     11.72748124	      0.00000000	      4.45149419	      2.26381860	      3.77816839	     13.97294884	      0.24387396	     25.34502313	    -12.35990114	      0.00000000	      0.08776942	      0.05330501	      0.99300688	      0.16299658	      0.07089567	      1.05506981	      0.14419637	      0.12960581	      1.05506981	      0.10031166	      0.12960581	      0.86888102	      0.08150268	      0.10869958	      0.80681809	      0.05015144	      0.08256947	      0.74475516	      0.62692816	      0.60299697	      5.52280636	      0.00000000	      0.00000000	     23.30301807	     -0.42819141	     -4.54886973	     23.93871701	     -9.55522704	     71.82036238	     47.05701611	      2.49960086	    -10.43356920	     23.42622498	     32.03372366	     -0.48353502	     81.14908466	     35.03352643	     88.72563447	      9.21059815	     17.23147318
      0.13333333	     -1.38492500	     -5.16713650	     84.58630016	      0.19559891	      0.88718320	      0.65393444	      1.71125899	     -2.71772818	      1.72888588	      6.74387773	      0.11770287	     28.52450897	     11.96000788	      0.00000000	      4.44236223	      2.10178578	      3.45918990	     14.05332302	      0.24527676	     25.62266257	    -11.78194427	      0.00000000	      0.08505341	      0.07037279	      1.03987486	      0.15795269	      0.09359580	      1.10486704	      0.13973425	      0.17110439	      1.10486704	      0.09720754	      0.17110439	      0.90989050	      0.07898060	      0.14350418	      0.84489832	      0.04859952	      0.10900744	      0.77990614	      0.60752801	      0.79607103	      5.78347200	      0.00000000	      0.00000000	     23.10902913	     -0.51021702	     -4.34017789	     24.08733786	     -9.61654703	     72.02935305	     47.00361388	      2.44915315	    -10.39358724	     23.88205286	     32.38546947	     -0.22198319	     82.67834121	     34.67688271	     88.77354945	      9.01334378	     16.57093005
